<?xml version="1.0" encoding="utf-8"?>
<!-- Generator: Adobe Illustrator 15.0.0, SVG Export Plug-In . SVG Version: 6.00 Build 0)  -->
<!DOCTYPE svg PUBLIC "-//W3C//DTD SVG 1.1//EN" "http://www.w3.org/Graphics/SVG/1.1/DTD/svg11.dtd">
<svg version="1.1" id="Layer_1" xmlns="http://www.w3.org/2000/svg" xmlns:xlink="http://www.w3.org/1999/xlink" x="0px" y="0px"
	 width="115px" height="71px" viewBox="0 0 115 71" enable-background="new 0 0 115 71" xml:space="preserve">
<path id="Bubble" fill="#BCD331" d="M14.116,36.561h-0.2v18c-0.66,7.573-6.186,13.548-13.8,16c1.063-0.034,2.138,0,2.3,0
	c9.614,0,18.394-2.455,25.524-6.631c5.644,4.167,12.622,6.631,20.175,6.631h32c18.778,0,34-15.223,34-34v-2
	c0-18.778-15.222-34-34-34h-32c-18.777,0-34,15.222-34,34V36.561z"/>
<path id="Hi." fill="#FFFFFF" d="M68.791,46.561h-5.67V37.68h-7.26v8.881h-5.67V24.36h5.67v8.34h7.26v-8.34h5.67V46.561z
	 M76.332,28.14h-4.98v-3.78h4.98V28.14z M76.332,46.561h-4.98V29.91h4.98V46.561z M84.201,46.561h-5.189V41.46h5.189V46.561z"/>
</svg>
