<?xml version="1.0" encoding="utf-8"?>
<!-- Generator: Adobe Illustrator 15.0.0, SVG Export Plug-In . SVG Version: 6.00 Build 0)  -->
<!DOCTYPE svg PUBLIC "-//W3C//DTD SVG 1.1//EN" "http://www.w3.org/Graphics/SVG/1.1/DTD/svg11.dtd">
<svg version="1.1" id="Layer_1" xmlns="http://www.w3.org/2000/svg" xmlns:xlink="http://www.w3.org/1999/xlink" x="0px" y="0px"
	 width="307.85px" height="50.66px" viewBox="0 0 307.85 50.66" enable-background="new 0 0 307.85 50.66" xml:space="preserve">
<g>
	<g>
		<polygon fill="#65778C" points="189.624,50.66 195.171,45.669 195.159,45.66 189.622,50.66 		"/>
	</g>
	<polygon fill="#65778C" points="149.048,50.66 155.271,45.169 155.261,45.16 	"/>
	<polygon fill="#65778C" points="192.615,50.66 198.159,45.669 198.15,45.66 192.613,50.66 	"/>
	<path fill="#65778C" d="M5.008,50.66l24.092-21.289c1.05-0.99,2.78-1,3.87,0.01l18.17,16.289l-5.547,4.99h2.99l5.546-4.99
		l45.56-41.01c1.271-1.199,3.351-1.26,4.67-0.17l47.851,40.7l-6.193,5.47h3.031l6.212-5.5l17.869-15.789
		c1.051-0.99,2.77-1,3.859,0.01l18.17,16.279l0.012,0.01l-5.547,4.99h2.988l5.537-5l45.541-41.08c1.289-1.13,3.389-1.18,4.699-0.09
		l54.383,46.17h3.094L249.679,2.96c-1-0.83-2.271-1.291-3.58-1.291c-1.371,0-2.701,0.5-3.74,1.42l-45.711,41.23l-18.309-16.41
		c-0.9-0.84-2.063-1.301-3.291-1.301c-1.221,0-2.393,0.461-3.271,1.281l-18.06,15.959l-48.07-40.891
		c-0.99-0.818-2.24-1.279-3.53-1.279c-1.409,0-2.76,0.541-3.789,1.51l-45.7,41.141L34.316,27.91c-0.899-0.84-2.069-1.301-3.3-1.301
		c-1.22,0-2.39,0.461-3.27,1.281L1.986,50.66H5.008z"/>
</g>
</svg>
