<?xml version="1.0" encoding="UTF-8"?>
<svg width="200px" height="200px" viewBox="0 0 200 200" version="1.1" xmlns="http://www.w3.org/2000/svg" xmlns:xlink="http://www.w3.org/1999/xlink">
    <!-- Generator: Sketch 48.2 (47327) - http://www.bohemiancoding.com/sketch -->
    <title>Artboard</title>
    <desc>Created with Sketch.</desc>
    <defs>
        <polygon id="path-1" points="0.0163907285 23.6573028 0.0163907285 0.0253418549 164.940174 0.0253418549 164.940174 11.8413223 164.940174 23.6573028"></polygon>
    </defs>
    <g id="Page-1" stroke="none" stroke-width="1" fill="none" fill-rule="evenodd">
        <g id="Artboard">
            <g id="Ringier_AG" transform="translate(18.000000, 88.000000)">
                <path d="M72.0071306,11.347834 L73.785491,11.347834 C77.4366475,11.1584385 78.3556424,9.76738913 78.2609368,5.81694864 C78.2609368,1.89579056 77.0232887,1.51619366 74.3251239,1.51619366 L72.0071306,1.51619366 L72.0071306,11.347834 Z M64.4827586,22.6333868 L67.0546492,22.6333868 L67.0546492,1.51619366 L64.4827586,1.51619366 L64.4827586,0.948275862 L74.4524773,0.948275862 C77.9452516,0.948275862 83.5957482,1.51619366 83.5957482,6.16377072 C83.5957482,9.98955944 79.341282,11.2524646 76.1342434,11.4746349 L76.1342434,11.5369608 C80.8020684,11.9493325 83.0868743,13.7506045 83.1497415,17.1323212 C83.2144975,22.0950201 83.6586154,22.5689118 84.9281019,22.5689118 C85.2464853,22.5689118 85.7216322,22.3805909 86.0721238,22.1584206 L86.2931034,22.6333868 C85.1828087,23.4551752 83.6265072,23.7068966 82.419888,23.7068966 C79.0226288,23.7068966 78.1983394,21.304932 78.1983394,17.8273086 C78.1983394,12.7394206 76.959612,11.9810328 73.6886269,11.9168264 L72.0071306,11.9168264 L72.0071306,22.6333868 L74.673457,22.6333868 L74.673457,23.2015733 L64.4827586,23.2015733 L64.4827586,22.6333868 Z" id="Fill-1" fill="#212121"></path>
                <path d="M90.5607389,0.948275862 C91.951057,0.948275862 93.0652556,2.12003911 93.0652556,3.58301633 C93.0652556,5.04626984 91.951057,6.21665162 90.5607389,6.21665162 C89.1696327,6.21665162 88.0567477,5.04626984 88.0567477,3.58301633 C88.0567477,2.12003911 89.1696327,0.948275862 90.5607389,0.948275862 M86.2931034,23.1225345 L88.4269212,23.1225345 L88.4269212,9.9869608 L86.2931034,9.9869608 L86.2931034,9.40176991 L88.489186,9.40176991 C89.756288,9.40176991 92.043272,9.40176991 92.6940312,8.55658629 L92.6940312,23.1225345 L94.8275862,23.1225345 L94.8275862,23.7068966 L86.2931034,23.7068966 L86.2931034,23.1225345" id="Fill-2" fill="#212121"></path>
                <path d="M95.7758621,23.121682 L98.0352658,23.121682 L98.0352658,9.96694412 L95.7758621,9.96694412 L95.7758621,9.38089947 L98.1009656,9.38089947 C99.4433565,9.38089947 101.868958,9.38089947 102.555187,8.53448276 L102.555187,12.0183771 L102.620887,12.0183771 C103.50672,10.1293654 105.668131,8.99103312 107.862391,8.99103312 C110.975335,8.99103312 112.48114,10.5214453 112.48114,14.0371598 L112.48114,23.121682 L114.741379,23.121682 L114.741379,23.7068966 L106.093509,23.7068966 L106.093509,23.121682 L107.961219,23.121682 L107.961219,12.8321435 C107.961219,10.5532655 106.979064,10.1631224 106.028923,10.1631224 C104.192948,10.1631224 102.555187,12.540228 102.555187,14.1995811 L102.555187,23.121682 L104.488597,23.121682 L104.488597,23.7068966 L95.7758621,23.7068966 L95.7758621,23.121682" id="Fill-3" fill="#212121"></path>
                <path d="M122.480288,13.5717571 C122.449794,9.81026621 121.976877,9.38565347 120.496335,9.38565347 C118.86172,9.38565347 118.579253,10.8253908 118.579253,13.4731069 C118.579253,17.3966065 119.23968,17.8212192 120.496335,17.8212192 C121.631283,17.8212192 122.449794,17.5916838 122.480288,13.5717571 Z M117.002951,24.7534114 C116.155016,25.7018428 115.681296,26.6483291 115.681296,28.0880664 C115.746296,29.6592447 117.28622,31.6528127 120.120248,31.6528127 C123.298799,31.6528127 126.131757,29.4294314 126.131757,27.0420963 C126.131757,25.046861 125.092301,24.7534114 121.946383,24.7534114 L117.002951,24.7534114 Z M122.668867,20.6340008 C125.75353,20.5675856 127.263763,22.0059335 127.263763,25.1788578 C127.263763,29.1682168 124.399242,32.2413793 120.02529,32.2413793 C116.532173,32.2413793 113.793103,30.3770292 113.793103,27.9580149 C113.793103,26.3890597 115.243152,25.0804854 116.50061,24.719509 L116.50061,24.6569842 C115.178688,24.2632171 114.454332,23.0205023 114.454332,21.3856876 C114.454332,18.6712784 116.375158,17.7892621 117.603192,17.6253083 L117.603192,17.5586152 C115.933002,16.7760828 114.990109,15.3683025 114.990109,13.5717571 C114.990109,10.5947438 117.822264,8.79708685 120.467714,8.79708685 C122.22778,8.79708685 123.48711,9.28616959 124.399242,9.97422008 C124.997343,9.25532403 125.786163,8.53448276 126.825351,8.53448276 C127.768244,8.53448276 128.965517,9.12416093 128.965517,10.2676697 C128.965517,11.1516312 128.398979,11.9369425 127.390285,11.9369425 C126.446322,11.9369425 125.943178,11.184422 125.943178,10.4327352 C125.943178,9.77719755 126.131757,9.35175114 126.792718,8.99383149 L126.792718,8.92630473 C125.564149,9.09137016 125.282752,9.81026621 124.716214,10.3999444 C125.597585,11.184422 126.068362,12.654727 126.068362,13.700975 C126.068362,16.8091514 123.17415,18.4097859 120.467714,18.4097859 C119.963233,18.4097859 119.55371,18.3430928 119.17575,18.2138749 C118.829087,18.1155025 118.48376,18.0171302 118.137097,18.0171302 C116.940626,18.0171302 115.587676,18.9008138 115.587676,19.7183601 C115.587676,20.60121 116.657625,20.6340008 117.446177,20.6340008 L122.668867,20.6340008 Z" id="Fill-4" fill="#212121"></path>
                <path d="M133.234073,0.948275862 C134.62469,0.948275862 135.738078,2.12003911 135.738078,3.58301633 C135.738078,5.04626984 134.62469,6.21665162 133.234073,6.21665162 C131.841615,6.21665162 130.727439,5.04626984 130.727439,3.58301633 C130.727439,2.12003911 131.841615,0.948275862 133.234073,0.948275862 M128.965517,23.1225345 L131.099795,23.1225345 L131.099795,9.9869608 L129.13422,9.9869608 L129.13422,9.40176991 L131.162073,9.40176991 C132.429185,9.40176991 134.717713,9.40176991 135.367562,8.55658629 L135.367562,23.1225345 L137.5,23.1225345 L137.5,23.7068966 L128.965517,23.7068966 L128.965517,23.1225345" id="Fill-5" fill="#212121"></path>
                <path d="M146.651213,15.7624 L146.651213,12.9485691 C146.651213,11.1501183 146.154177,10.0722149 144.562478,10.0722149 C143.434285,10.0722149 142.472616,10.7591387 142.472616,12.9485691 L142.472616,15.7624 L146.651213,15.7624 Z M142.472616,16.3501199 L142.472616,19.0961476 C142.472616,21.3203133 142.8051,23.8696006 145.889317,23.8696006 C148.474806,23.8696006 150.397581,21.974447 151.127356,18.933031 L151.724138,18.933031 C150.994363,22.1686863 148.973251,24.6551724 144.893835,24.6551724 C140.650713,24.6551724 137.5,21.4825962 137.5,17.2329503 C137.5,12.8182426 140.882607,9.48366132 144.794372,9.48366132 C148.277288,9.41919275 151.592271,12.8182426 151.624393,16.3501199 L142.472616,16.3501199 Z" id="Fill-6" fill="#212121"></path>
                <g id="Group-10">
                    <mask id="mask-2" fill="white">
                        <use xlink:href="#path-1"></use>
                    </mask>
                    <g id="Clip-8"></g>
                    <path d="M151.503328,23.08098 L153.721267,23.08098 L153.721267,10.1261147 L151.503328,10.1261147 L151.503328,9.54897444 L153.721267,9.54897444 C155.041813,9.54897444 157.419834,9.54897444 158.095406,8.71541815 L158.095406,11.9856074 L158.15769,11.9856074 C158.768518,10.3828032 160.343394,8.97183413 162.400704,8.97183413 C163.912202,8.97183413 164.940174,9.90212545 164.940174,11.4417113 C164.940174,12.6603002 164.040869,13.7813367 162.497682,13.7813367 C161.243518,13.7813367 160.311978,12.9477804 160.311978,11.6970373 C160.311978,10.8945452 160.535985,10.3828032 161.082343,9.8056629 L160.955041,9.8056629 C158.929967,10.7035275 158.15769,12.4349485 158.15769,14.9048256 L158.15769,23.08098 L161.115397,23.08098 L161.115397,23.6573028 L151.503328,23.6573028 L151.503328,23.08098" id="Fill-7" fill="#212121" mask="url(#mask-2)"></path>
                    <path d="M9.81804636,14.9127279 C12.6375248,14.9127279 14.924851,12.6322335 14.924851,9.81874257 C14.924851,7.00715914 12.6375248,4.72639219 9.81804636,4.72639219 C6.99911424,4.72639219 4.71288079,7.00715914 4.71288079,9.81874257 C4.71288079,12.6322335 6.99911424,14.9127279 9.81804636,14.9127279 M0,9.81874257 C0,4.40975525 4.39517384,0.0253418549 9.81804636,0.0253418549 C15.2414652,0.0253418549 19.6377318,4.40975525 19.6377318,9.81874257 C19.6377318,15.2304548 15.2414652,19.6137782 9.81804636,19.6137782 C4.39517384,19.6137782 0,15.2304548 0,9.81874257" id="Fill-9" fill="#212121" mask="url(#mask-2)"></path>
                </g>
                <path d="M50.7322046,15.1346601 C53.5917545,15.1346601 55.9113643,12.8162874 55.9113643,9.95606549 C55.9113643,7.0977827 53.5917545,4.77913305 50.7322046,4.77913305 C47.8729316,4.77913305 45.5541529,7.0977827 45.5541529,9.95606549 C45.5541529,12.8162874 47.8729316,15.1346601 50.7322046,15.1346601 M40.7758621,9.95606549 C40.7758621,4.45723689 45.233347,0 50.7322046,0 C56.2324473,0 60.6896552,4.45723689 60.6896552,9.95606549 C60.6896552,15.4576643 56.2324473,19.9137931 50.7322046,19.9137931 C45.233347,19.9137931 40.7758621,15.4576643 40.7758621,9.95606549" id="Fill-11" fill="#212121"></path>
                <path d="M29.8723519,15.1346601 C32.7307937,15.1346601 35.0484642,12.8162874 35.0484642,9.95606549 C35.0484642,7.0977827 32.7307937,4.77913305 29.8723519,4.77913305 C27.0116937,4.77913305 24.6931921,7.0977827 24.6931921,9.95606549 C24.6931921,12.8162874 27.0116937,15.1346601 29.8723519,15.1346601 M19.9137931,9.95606549 C19.9137931,4.45723689 24.3723862,0 29.8723519,0 C35.3703783,0 39.8275862,4.45723689 39.8275862,9.95606549 C39.8275862,15.4576643 35.3703783,19.9137931 29.8723519,19.9137931 C24.3723862,19.9137931 19.9137931,15.4576643 19.9137931,9.95606549" id="Fill-12" fill="#212121"></path>
            </g>
        </g>
    </g>
</svg>