<?xml version="1.0" encoding="UTF-8"?>
<svg width="200px" height="200px" viewBox="0 0 200 200" version="1.1" xmlns="http://www.w3.org/2000/svg" xmlns:xlink="http://www.w3.org/1999/xlink">
    <!-- Generator: Sketch 48.2 (47327) - http://www.bohemiancoding.com/sketch -->
    <title>Artboard</title>
    <desc>Created with Sketch.</desc>
    <defs>
        <path d="M24.4542814,7.15122484 C24.4542814,11.6076634 23.2845215,15.7123321 21.296018,19.348073 C20.9450017,30.9583923 11.5869223,40.3406399 0.00618141879,40.5751039 C15.9150929,40.3406399 29.0163157,28.964637 32.0577209,13.8358826 C30.7711027,8.32398735 27.6126921,3.51563155 23.4015269,0.114649782 C24.1032652,2.34286904 24.4542814,4.6882465 24.4542814,7.15122484 Z" id="path-1"></path>
        <path d="M23.4225507,0.196090837 C9.93370925,4.56159835 0.0808722467,17.1854841 0.0808722467,32.2872989 C0.0808722467,50.8103868 15.0946278,65.9122016 33.5098877,65.9122016 C51.9252952,65.9122016 66.9390507,50.8103868 66.9390507,32.2872989 C66.9390507,18.3652948 55.6787709,7.03908213 41.8379581,7.03908213 C29.8738833,7.03908213 20.13837,16.8316003 20.13837,28.8658775 C20.13837,36.7706688 26.4723789,43.141617 34.3311542,43.141617 C35.6212731,43.141617 36.7942159,43.0236063 37.9671586,42.6697224 C38.2019537,42.6697224 38.3189824,42.4338493 38.3189824,42.3156901 C38.3189824,42.0798171 38.2019537,41.9618063 37.9671586,41.8437955 C32.2196211,41.3719009 27.6453216,36.4167849 27.6453216,30.5175828 C27.6453216,22.9666754 33.7445352,16.8316003 41.2514868,16.8316003 C49.1102621,16.8316003 55.4442709,23.2026969 55.4442709,31.1074882 C55.4442709,43.2596278 45.5914339,53.1700082 33.5098877,53.1700082 C19.6692225,53.288019 8.40894273,41.9618063 8.40894273,28.0399506 C8.40894273,16.4777164 14.5081564,6.44917677 23.774522,0.904155404 C23.8918458,0.786144643 24.009022,0.668133882 24.009022,0.550123121 C24.009022,0.31425004 23.774522,0.0782285172 23.5398744,0.0782285172 C23.5398744,0.196090837 23.4225507,0.196090837 23.4225507,0.196090837 Z" id="path-3"></path>
        <path d="M24.4542814,7.15122484 C24.4542814,11.6076634 23.2845215,15.7123321 21.296018,19.348073 C20.9450017,30.9583923 11.5869223,40.3406399 0.00618141879,40.5751039 C15.9150929,40.3406399 29.0163157,28.964637 32.0577209,13.8358826 C30.7711027,8.32398735 27.6126921,3.51563155 23.4015269,0.114649782 C24.1032652,2.34286904 24.4542814,4.6882465 24.4542814,7.15122484 Z" id="path-5"></path>
    </defs>
    <g id="Page-1" stroke="none" stroke-width="1" fill="none" fill-rule="evenodd">
        <g id="Artboard">
            <g id="TV-JOJ" transform="translate(60.000000, 69.000000)">
                <path d="M65.4450778,19.3245046 C65.4450778,23.7938147 64.2741147,27.910487 62.2834185,31.5565811 C61.9320412,43.2004347 52.5643363,52.6097813 40.971831,52.8450704 C56.8969587,52.6097813 70.0118045,41.2009208 73.056338,26.0286177 C71.7682491,20.5006544 68.6067371,15.6784105 64.3912405,12.2676056 C65.0937005,14.5022607 65.4450778,16.8545603 65.4450778,19.3245046" id="Fill-1" fill="#2C2C2C"></path>
                <g id="Group-5" transform="translate(40.971831, 12.267606)">
                    <mask id="mask-2" fill="white">
                        <use xlink:href="#path-1"></use>
                    </mask>
                    <g id="Clip-4"></g>
                    <polygon id="Fill-3" fill="#2C2C2C" mask="url(#mask-2)" points="0.00618141879 40.5751039 32.0577209 40.5751039 32.0577209 0.114502228 0.00618141879 0.114502228"></polygon>
                </g>
                <path d="M30.3911915,0.116717799 C16.8737371,4.43424867 7,16.9199701 7,31.856178 C7,50.1763213 22.0456031,65.1126761 40.4999261,65.1126761 C58.9543969,65.1126761 74,50.1763213 74,31.856178 C74,18.0868545 62.7158346,6.8847352 48.8456623,6.8847352 C36.856061,6.8847352 27.1000444,16.5698167 27.1000444,28.4722428 C27.1000444,36.2904267 33.4473412,42.5915729 41.3227868,42.5915729 C42.6157903,42.5915729 43.7912211,42.4748551 44.9666519,42.1248485 C45.2017972,42.1248485 45.319222,41.8915598 45.319222,41.774842 C45.319222,41.5414064 45.2017972,41.4246886 44.9666519,41.3079708 C39.2069226,40.8412464 34.622772,35.9402733 34.622772,30.1058515 C34.622772,22.6376741 40.7350714,16.5698167 48.2579469,16.5698167 C56.1333925,16.5698167 62.4806893,22.8711097 62.4806893,30.6892937 C62.4806893,42.7082907 52.6069522,52.5102368 40.4999261,52.5102368 C26.6297537,52.6269546 15.3455883,41.4246886 15.3455883,27.655365 C15.3455883,16.2198101 21.4578877,6.30129302 30.7439095,0.816877781 C30.8613342,0.700159981 30.9789069,0.583442182 30.9789069,0.466724383 C30.9789069,0.233435599 30.7439095,0 30.5087641,0 C30.5087641,0.116717799 30.3911915,0.116717799 30.3911915,0.116717799" id="Fill-6" fill="#2C2C2C"></path>
                <g id="Group-10" transform="translate(7.000000, 0.000000)">
                    <mask id="mask-4" fill="white">
                        <use xlink:href="#path-3"></use>
                    </mask>
                    <g id="Clip-9"></g>
                    <polygon id="Fill-8" fill="#2C2C2C" mask="url(#mask-4)" points="16.8541304 -28.9453084 95.2070885 16.5957123 50.165822 95.0537196 -28.1872837 49.5126989"></polygon>
                </g>
                <path d="M65.4450778,19.3245046 C65.4450778,23.7938147 64.2741147,27.910487 62.2834185,31.5565811 C61.9320412,43.2004347 52.5643363,52.6097813 40.971831,52.8450704 C56.8969587,52.6097813 70.0118045,41.2009208 73.056338,26.0286177 C71.7682491,20.5006544 68.6067371,15.6784105 64.3912405,12.2676056 C65.0937005,14.5022607 65.4450778,16.8545603 65.4450778,19.3245046" id="Fill-11" fill="#2C2C2C"></path>
                <g id="Group-15" transform="translate(40.971831, 12.267606)">
                    <mask id="mask-6" fill="white">
                        <use xlink:href="#path-5"></use>
                    </mask>
                    <g id="Clip-14"></g>
                    <polygon id="Fill-13" fill="#2C2C2C" mask="url(#mask-6)" points="0.00618141879 40.5751039 32.0577209 40.5751039 32.0577209 0.114502228 0.00618141879 0.114502228"></polygon>
                </g>
            </g>
        </g>
    </g>
</svg>