<?xml version="1.0" encoding="UTF-8" standalone="no"?>
<svg width="21px" height="16px" viewBox="0 0 21 16" version="1.1" xmlns="http://www.w3.org/2000/svg" xmlns:xlink="http://www.w3.org/1999/xlink">
    <!-- Generator: Sketch 46.2 (44496) - http://www.bohemiancoding.com/sketch -->
    <title>“</title>
    <desc>Created with Sketch.</desc>
    <defs></defs>
    <g id="Desktop" stroke="none" stroke-width="1" fill="none" fill-rule="evenodd">
        <g id="Home" transform="translate(-910.000000, -3231.000000)" fill="#FFFFFF">
            <g id="Portfolio" transform="translate(213.000000, 1727.000000)">
                <g id="Quotes" transform="translate(672.000000, 1477.000000)">
                    <g id="quote">
                        <path d="M36.8865084,42.9288838 L45.2600002,42.9288838 L45.2600002,34.7478861 L41.4582425,34.7478861 L41.4582425,33.1116865 C41.4582425,32.6304514 41.7469836,31.3311164 43.5275537,31.3311164 L45.2600002,31.3311164 L45.2600002,27 L41.7951071,27 C40.110784,27 36.8865084,28.1068409 36.8865084,32.8229454 L36.8865084,42.9288838 Z M25,42.9288838 L33.3734918,42.9288838 L33.3734918,34.7478861 L29.571734,34.7478861 L29.571734,33.1116865 C29.571734,32.6785749 29.8123516,31.3311164 31.6410452,31.3311164 L33.3734918,31.3311164 L33.3734918,27 L29.9085986,27 C28.2242756,27 25,28.1068409 25,32.8229454 L25,42.9288838 Z" id="“"></path>
                    </g>
                </g>
            </g>
        </g>
    </g>
</svg>